<svg xmlns="http://www.w3.org/2000/svg" xmlns:xlink="http://www.w3.org/1999/xlink" version="1.1" x="0px" y="0px" viewBox="0 0 100 125" enable-background="new 0 0 100 100" xml:space="preserve"><path d="M73.101,31.377H28.464L13.716,5v90c0,0,17.465-14.939,25.952-18.047c3.466-1.275,7.212,8.095,11.115,8.095  c3.902,0,7.648-9.37,11.114-8.084C70.384,80.073,86.284,95,86.284,95V5L73.101,31.377z M32.87,63.781  c-5.233,0-9.639-3.511-11.003-8.308l18.998,5.043C38.796,62.54,35.978,63.781,32.87,63.781z M68.695,63.781  c-3.109,0-5.926-1.241-7.995-3.265l18.997-5.043C78.334,60.27,73.928,63.781,68.695,63.781z"/><text x="0" y="115" fill="#000000" font-size="5px" font-weight="bold" font-family="'Helvetica Neue', Helvetica, Arial-Unicode, Arial, Sans-serif">Created by Philip Glenn</text><text x="0" y="120" fill="#000000" font-size="5px" font-weight="bold" font-family="'Helvetica Neue', Helvetica, Arial-Unicode, Arial, Sans-serif">from the Noun Project</text></svg>